<svg width="16" height="16" viewBox="0 0 16 16" xmlns="http://www.w3.org/2000/svg">
<g clip-path="url(#clip0)">
<path fill-rule="evenodd" clip-rule="evenodd" d="M3.83325 5.33329C3.83325 3.03211 5.69873 1.16663 7.99992 1.16663C10.3011 1.16663 12.1666 3.03211 12.1666 5.33329C12.1666 6.78246 11.4268 8.05883 10.3042 8.80533C10.2704 8.8221 10.239 8.84251 10.2103 8.86599C9.56962 9.2677 8.81189 9.49996 7.99992 9.49996C5.69873 9.49996 3.83325 7.63448 3.83325 5.33329ZM10.127 10.0432C9.47833 10.3366 8.7582 10.5 7.99992 10.5C7.24195 10.5 6.5221 10.3367 5.87361 10.0435L5.29885 14.3709L7.74271 12.9045C7.90105 12.8095 8.09887 12.8095 8.25721 12.9045L10.7012 14.371L10.127 10.0432ZM4.93767 9.49509C3.66129 8.55437 2.83325 7.04053 2.83325 5.33329C2.83325 2.47982 5.14645 0.166626 7.99992 0.166626C10.8534 0.166626 13.1666 2.47982 13.1666 5.33329C13.1666 7.04015 12.3389 8.5537 11.063 9.49448L11.8289 15.2675C11.8542 15.4579 11.7682 15.6458 11.6078 15.7512C11.4473 15.8566 11.2407 15.8608 11.076 15.762L7.99996 13.9164L4.92387 15.762C4.75924 15.8608 4.55258 15.8566 4.39211 15.7512C4.23164 15.6458 4.1457 15.4578 4.17098 15.2675L4.93767 9.49509Z"/>
</g>
<defs>
<clipPath id="clip0">
<rect width="16" height="16"/>
</clipPath>
</defs>
</svg>
