<svg width="16" height="16" viewBox="0 0 16 16" xmlns="http://www.w3.org/2000/svg">
<path fill-rule="evenodd" clip-rule="evenodd" d="M3.6 1.03337C3.69443 0.907471 3.84262 0.833374 4 0.833374H12C12.1574 0.833374 12.3056 0.907471 12.4 1.03337L14.3958 3.69445C14.4611 3.77895 14.5 3.88493 14.5 4V4.00004V13.3334C14.5 13.8196 14.3068 14.2859 13.963 14.6297C13.6192 14.9736 13.1529 15.1667 12.6667 15.1667H3.33333C2.8471 15.1667 2.38079 14.9736 2.03697 14.6297C1.69315 14.2859 1.5 13.8196 1.5 13.3334V4.00004V4C1.5 3.88493 1.53887 3.77894 1.6042 3.69444L3.6 1.03337ZM11.75 1.83337L13 3.5H3.00003L4.25 1.83337H11.75ZM2.5 13.3334V4.5H13.5V13.3334C13.5 13.5544 13.4122 13.7663 13.2559 13.9226C13.0996 14.0789 12.8877 14.1667 12.6667 14.1667H3.33333C3.11232 14.1667 2.90036 14.0789 2.74408 13.9226C2.5878 13.7663 2.5 13.5544 2.5 13.3334ZM5.83331 6.66663C5.83331 6.39048 5.60946 6.16663 5.33331 6.16663C5.05717 6.16663 4.83331 6.39048 4.83331 6.66663C4.83331 7.50648 5.16694 8.31193 5.76081 8.9058C6.35467 9.49966 7.16013 9.83329 7.99998 9.83329C8.83983 9.83329 9.64529 9.49966 10.2392 8.9058C10.833 8.31193 11.1666 7.50648 11.1666 6.66663C11.1666 6.39048 10.9428 6.16663 10.6666 6.16663C10.3905 6.16663 10.1666 6.39048 10.1666 6.66663C10.1666 7.24126 9.93837 7.79236 9.53204 8.19869C9.12572 8.60502 8.57462 8.83329 7.99998 8.83329C7.42534 8.83329 6.87424 8.60502 6.46791 8.19869C6.06159 7.79236 5.83331 7.24126 5.83331 6.66663Z"/>
</svg>
