<svg width="16" height="16" viewBox="0 0 16 16" xmlns="http://www.w3.org/2000/svg">
<path fill-rule="evenodd" clip-rule="evenodd" d="M8.00004 0.833374C6.80656 0.833374 5.66197 1.30748 4.81806 2.15139C3.97414 2.99531 3.50004 4.1399 3.50004 5.33337C3.50004 7.59304 3.01651 9.00902 2.56109 9.84395C2.33269 10.2627 2.10865 10.5403 1.94956 10.7083C1.86989 10.7924 1.80616 10.8493 1.76588 10.8829C1.74574 10.8996 1.73144 10.9106 1.72393 10.9162L1.71818 10.9204C1.53802 11.0433 1.45817 11.2691 1.52149 11.4783C1.58534 11.6891 1.77971 11.8334 2.00004 11.8334H14C14.2204 11.8334 14.4147 11.6891 14.4786 11.4783C14.5419 11.2691 14.4621 11.0433 14.2819 10.9204L14.2762 10.9162C14.2686 10.9106 14.2543 10.8996 14.2342 10.8829C14.1939 10.8493 14.1302 10.7924 14.0505 10.7083C13.8914 10.5403 13.6674 10.2627 13.439 9.84395C12.9836 9.00902 12.5 7.59304 12.5 5.33337C12.5 4.1399 12.0259 2.99531 11.182 2.15139C10.3381 1.30748 9.19351 0.833374 8.00004 0.833374ZM12.5611 10.3228C12.6658 10.5148 12.7712 10.6844 12.8735 10.8334H3.12659C3.22891 10.6844 3.33427 10.5148 3.43899 10.3228C3.98357 9.32439 4.50004 7.74038 4.50004 5.33337C4.50004 4.40512 4.86879 3.51488 5.52517 2.8585C6.18154 2.20212 7.07178 1.83337 8.00004 1.83337C8.9283 1.83337 9.81854 2.20212 10.4749 2.8585C11.1313 3.51488 11.5 4.40512 11.5 5.33337C11.5 7.74038 12.0165 9.32439 12.5611 10.3228ZM7.27922 13.7491C7.14066 13.5103 6.8347 13.4289 6.59583 13.5675C6.35697 13.7061 6.27566 14.012 6.41422 14.2509C6.57538 14.5287 6.8067 14.7593 7.08501 14.9196C7.36333 15.0799 7.67887 15.1643 8.00005 15.1643C8.32123 15.1643 8.63678 15.0799 8.91509 14.9196C9.19341 14.7593 9.42473 14.5287 9.58589 14.2509C9.72445 14.012 9.64313 13.7061 9.40427 13.5675C9.16541 13.4289 8.85945 13.5103 8.72088 13.7491C8.64763 13.8754 8.54249 13.9802 8.41598 14.0531C8.28947 14.126 8.14604 14.1643 8.00005 14.1643C7.85406 14.1643 7.71063 14.126 7.58412 14.0531C7.45762 13.9802 7.35247 13.8754 7.27922 13.7491Z"/>
</svg>
