<svg width="16" height="16" viewBox="0 0 16 16" xmlns="http://www.w3.org/2000/svg">
<path fill-rule="evenodd" clip-rule="evenodd" d="M1.33325 0.833374C1.05711 0.833374 0.833252 1.05723 0.833252 1.33337V8.00004C0.833252 8.13275 0.88601 8.26002 0.979905 8.3538L6.70617 14.0734L6.70639 14.0736C6.87661 14.244 7.07873 14.3791 7.3012 14.4713C7.52376 14.5636 7.76233 14.6111 8.00325 14.6111C8.24418 14.6111 8.48274 14.5636 8.70531 14.4713C8.92787 14.3791 9.13007 14.2439 9.30033 14.0734L14.0801 9.29359L13.7266 8.94004L14.0812 9.29254C14.4226 8.94904 14.6143 8.48438 14.6143 8.00004C14.6143 7.5157 14.4226 7.05104 14.0812 6.70754L14.0801 6.70649L8.35347 0.979821C8.2597 0.886052 8.13253 0.833374 7.99992 0.833374H1.33325ZM13.3725 8.58705L13.372 8.58754L8.59303 13.3665L8.59284 13.3667C8.51544 13.4442 8.42353 13.5056 8.32237 13.5476C8.22121 13.5895 8.11277 13.6111 8.00325 13.6111C7.89374 13.6111 7.7853 13.5895 7.68414 13.5476C7.58297 13.5056 7.49106 13.4442 7.41367 13.3667L7.41327 13.3663L1.83325 7.79276V1.83337H7.79281L13.372 7.41254L13.3725 7.41303C13.5274 7.56912 13.6143 7.78012 13.6143 8.00004C13.6143 8.21996 13.5274 8.43096 13.3725 8.58705ZM4.66663 4.16663C4.39048 4.16663 4.16663 4.39048 4.16663 4.66663C4.16663 4.94277 4.39048 5.16663 4.66663 5.16663H4.67329C4.94944 5.16663 5.17329 4.94277 5.17329 4.66663C5.17329 4.39048 4.94944 4.16663 4.67329 4.16663H4.66663Z"/>
</svg>
