<svg width="16" height="16" viewBox="0 0 16 16" xmlns="http://www.w3.org/2000/svg">
<path fill-rule="evenodd" clip-rule="evenodd" d="M3.50833 2.17508C3.72713 1.95629 4.02387 1.83337 4.33329 1.83337H12.8333V10.8334H4.33329C3.91662 10.8334 3.51233 10.9534 3.16663 11.1743V3.00004C3.16663 2.69062 3.28954 2.39388 3.50833 2.17508ZM3.16663 13C3.16663 13.3095 3.28954 13.6062 3.50833 13.825C3.72713 14.0438 4.02387 14.1667 4.33329 14.1667H12.8333V11.8334H4.33329C4.02387 11.8334 3.72713 11.9563 3.50833 12.1751C3.28954 12.3939 3.16663 12.6906 3.16663 13ZM13.8333 11.3334V1.33337C13.8333 1.05723 13.6094 0.833374 13.3333 0.833374H4.33329C3.75866 0.833374 3.20756 1.06165 2.80123 1.46798C2.3949 1.8743 2.16663 2.42541 2.16663 3.00004V13C2.16663 13.5747 2.3949 14.1258 2.80123 14.5321C3.20756 14.9384 3.75866 15.1667 4.33329 15.1667H13.3333C13.6094 15.1667 13.8333 14.9429 13.8333 14.6667V11.3334Z"/>
</svg>
