<svg width="16" height="16" viewBox="0 0 16 16" xmlns="http://www.w3.org/2000/svg">
<path d="M2.02917 2.46826C2.02917 2.19212 2.25303 1.96826 2.52917 1.96826H6.52917C6.80532 1.96826 7.02917 2.19212 7.02917 2.46826V6.46826C7.02917 6.7444 6.80532 6.96826 6.52917 6.96826H2.52917C2.25303 6.96826 2.02917 6.7444 2.02917 6.46826V2.46826Z" stroke="#787F85"/>
<path d="M2.02917 9.53174C2.02917 9.2556 2.25303 9.03174 2.52917 9.03174H6.52917C6.80532 9.03174 7.02917 9.2556 7.02917 9.53174V13.5317C7.02917 13.8079 6.80532 14.0317 6.52917 14.0317H2.52917C2.25303 14.0317 2.02917 13.8079 2.02917 13.5317V9.53174Z" stroke="#787F85"/>
<path d="M8.97083 2.46826C8.97083 2.19212 9.19468 1.96826 9.47083 1.96826H13.4708C13.747 1.96826 13.9708 2.19212 13.9708 2.46826V6.46826C13.9708 6.7444 13.747 6.96826 13.4708 6.96826H9.47083C9.19468 6.96826 8.97083 6.7444 8.97083 6.46826V2.46826Z" stroke="#787F85"/>
<path d="M8.97083 9.53174C8.97083 9.2556 9.19468 9.03174 9.47083 9.03174H13.4708C13.747 9.03174 13.9708 9.2556 13.9708 9.53174V13.5317C13.9708 13.8079 13.747 14.0317 13.4708 14.0317H9.47083C9.19468 14.0317 8.97083 13.8079 8.97083 13.5317V9.53174Z" stroke="#787F85"/>
</svg>
