<svg width="16" height="16" viewBox="0 0 16 16" xmlns="http://www.w3.org/2000/svg">
<g clip-path="url(#clip0)">
<path fill-rule="evenodd" clip-rule="evenodd" d="M11.1667 1C11.1667 0.723858 10.9428 0.5 10.6667 0.5C10.3905 0.5 10.1667 0.723858 10.1667 1V1.83325H5.83331V1C5.83331 0.723858 5.60946 0.5 5.33331 0.5C5.05717 0.5 4.83331 0.723858 4.83331 1V1.83325H3.33333C2.32081 1.83325 1.5 2.65406 1.5 3.66659V6.33325V12.9999C1.5 14.0124 2.32081 14.8333 3.33333 14.8333H12.6667C13.6792 14.8333 14.5 14.0124 14.5 12.9999V6.33325V3.66659C14.5 2.65406 13.6792 1.83325 12.6667 1.83325H11.1667V1ZM13.5 5.83325V3.66659C13.5 3.20635 13.1269 2.83325 12.6667 2.83325H11.1667V3.66667C11.1667 3.94281 10.9428 4.16667 10.6667 4.16667C10.3905 4.16667 10.1667 3.94281 10.1667 3.66667V2.83325H5.83331V3.66667C5.83331 3.94281 5.60946 4.16667 5.33331 4.16667C5.05717 4.16667 4.83331 3.94281 4.83331 3.66667V2.83325H3.33333C2.8731 2.83325 2.5 3.20635 2.5 3.66659V5.83325H13.5ZM2.5 6.83325H13.5V12.9999C13.5 13.4602 13.1269 13.8333 12.6667 13.8333H3.33333C2.8731 13.8333 2.5 13.4602 2.5 12.9999V6.83325Z"/>
</g>
<defs>
<clipPath id="clip0">
<rect width="16" height="16"/>
</clipPath>
</defs>
</svg>
