<svg width="16" height="16" viewBox="0 0 16 16" xmlns="http://www.w3.org/2000/svg">
<g clip-path="url(#clip0)">
<path fill-rule="evenodd" clip-rule="evenodd" d="M0.666748 0.166626C0.390606 0.166626 0.166748 0.390484 0.166748 0.666626C0.166748 0.942768 0.390606 1.16663 0.666748 1.16663H2.92357L3.50565 4.07486C3.50806 4.09088 3.51123 4.10666 3.51512 4.12214L4.62966 9.6907L4.62974 9.69112C4.71364 10.113 4.94319 10.4919 5.27824 10.7616C5.61207 11.0304 6.02945 11.1736 6.45784 11.1666H12.929C13.3574 11.1736 13.7748 11.0304 14.1086 10.7616C14.4438 10.4918 14.6733 10.1127 14.7572 9.6907L14.7579 9.68696L15.8246 4.09362C15.8525 3.94725 15.8137 3.79605 15.7187 3.68124C15.6237 3.56642 15.4824 3.49996 15.3334 3.49996H4.41042L3.82369 0.568498C3.77692 0.334819 3.57173 0.166626 3.33341 0.166626H0.666748ZM5.61036 9.49516L4.61057 4.49996H14.7291L13.7763 9.49588L13.776 9.49751C13.7376 9.68869 13.6334 9.86038 13.4815 9.98268C13.3292 10.1053 13.1385 10.1705 12.943 10.1667L12.943 10.1666H12.9334H6.45341V10.1665L6.44383 10.1667C6.24829 10.1705 6.05766 10.1053 5.90531 9.98268C5.75296 9.86003 5.6486 9.68772 5.6105 9.49588L5.61036 9.49516ZM6.00004 13.8334C5.90799 13.8334 5.83337 13.908 5.83337 14C5.83337 14.0921 5.90799 14.1667 6.00004 14.1667C6.09209 14.1667 6.16671 14.0921 6.16671 14C6.16671 13.908 6.09209 13.8334 6.00004 13.8334ZM4.83337 14C4.83337 13.3557 5.35571 12.8334 6.00004 12.8334C6.64437 12.8334 7.16671 13.3557 7.16671 14C7.16671 14.6444 6.64437 15.1667 6.00004 15.1667C5.35571 15.1667 4.83337 14.6444 4.83337 14ZM13.3334 13.8334C13.2414 13.8334 13.1667 13.908 13.1667 14C13.1667 14.0921 13.2414 14.1667 13.3334 14.1667C13.4255 14.1667 13.5001 14.0921 13.5001 14C13.5001 13.908 13.4255 13.8334 13.3334 13.8334ZM12.1667 14C12.1667 13.3557 12.6891 12.8334 13.3334 12.8334C13.9777 12.8334 14.5001 13.3557 14.5001 14C14.5001 14.6444 13.9777 15.1667 13.3334 15.1667C12.6891 15.1667 12.1667 14.6444 12.1667 14Z"/>
</g>
<defs>
<clipPath id="clip0">
<rect width="16" height="16"/>
</clipPath>
</defs>
</svg>
