<svg width="16" height="16" viewBox="0 0 16 16" xmlns="http://www.w3.org/2000/svg">
<path fill-rule="evenodd" clip-rule="evenodd" d="M8 2.16663C8.27614 2.16663 8.5 2.39048 8.5 2.66663V13.3333C8.5 13.6094 8.27614 13.8333 8 13.8333C7.72386 13.8333 7.5 13.6094 7.5 13.3333V2.66663C7.5 2.39048 7.72386 2.16663 8 2.16663ZM12 6.16663C12.2761 6.16663 12.5 6.39048 12.5 6.66663V13.3333C12.5 13.6094 12.2761 13.8333 12 13.8333C11.7239 13.8333 11.5 13.6094 11.5 13.3333V6.66663C11.5 6.39048 11.7239 6.16663 12 6.16663ZM4.5 9.33337C4.5 9.05723 4.27614 8.83337 4 8.83337C3.72386 8.83337 3.5 9.05723 3.5 9.33337V13.3334C3.5 13.6095 3.72386 13.8334 4 13.8334C4.27614 13.8334 4.5 13.6095 4.5 13.3334V9.33337Z"/>
</svg>
