<svg width="16" height="16" viewBox="0 0 16 16" xmlns="http://www.w3.org/2000/svg">
<path fill-rule="evenodd" clip-rule="evenodd" d="M2.07745 2.07745C2.23373 1.92117 2.44569 1.83337 2.66671 1.83337H8.66671C8.88772 1.83337 9.09968 1.92117 9.25596 2.07745C9.41224 2.23373 9.50004 2.44569 9.50004 2.66671V3.33337C9.50004 3.60952 9.7239 3.83337 10 3.83337C10.2762 3.83337 10.5 3.60952 10.5 3.33337V2.66671C10.5 2.18048 10.3069 1.71416 9.96307 1.37034C9.61925 1.02653 9.15294 0.833374 8.66671 0.833374H2.66671C2.18048 0.833374 1.71416 1.02653 1.37034 1.37034C1.02653 1.71416 0.833374 2.18048 0.833374 2.66671V8.66671C0.833374 9.15294 1.02653 9.61925 1.37034 9.96307C1.71416 10.3069 2.18048 10.5 2.66671 10.5H3.33337C3.60952 10.5 3.83337 10.2762 3.83337 10C3.83337 9.7239 3.60952 9.50004 3.33337 9.50004H2.66671C2.44569 9.50004 2.23373 9.41224 2.07745 9.25596C1.92117 9.09968 1.83337 8.88772 1.83337 8.66671V2.66671C1.83337 2.44569 1.92117 2.23373 2.07745 2.07745ZM6.5 7.33333C6.5 6.8731 6.8731 6.5 7.33333 6.5H13.3333C13.7936 6.5 14.1667 6.8731 14.1667 7.33333V13.3333C14.1667 13.7936 13.7936 14.1667 13.3333 14.1667H7.33333C6.8731 14.1667 6.5 13.7936 6.5 13.3333V7.33333ZM7.33333 5.5C6.32081 5.5 5.5 6.32081 5.5 7.33333V13.3333C5.5 14.3459 6.32081 15.1667 7.33333 15.1667H13.3333C14.3459 15.1667 15.1667 14.3459 15.1667 13.3333V7.33333C15.1667 6.32081 14.3459 5.5 13.3333 5.5H7.33333Z"/>
</svg>
