<svg width="16" height="16" viewBox="0 0 16 16" xmlns="http://www.w3.org/2000/svg">
<path fill-rule="evenodd" clip-rule="evenodd" d="M4.00008 0.833374C3.51385 0.833374 3.04754 1.02653 2.70372 1.37034C2.3599 1.71416 2.16675 2.18048 2.16675 2.66671V13.3334C2.16675 13.8196 2.3599 14.2859 2.70372 14.6297C3.04754 14.9736 3.51385 15.1667 4.00008 15.1667H12.0001C12.4863 15.1667 12.9526 14.9736 13.2964 14.6297C13.6403 14.2859 13.8334 13.8196 13.8334 13.3334V6.00004C13.8334 5.86955 13.7824 5.74432 13.6914 5.65101C13.6901 5.64961 13.6887 5.64822 13.6873 5.64684C13.6872 5.64672 13.6871 5.6466 13.687 5.64649L9.02078 0.980301L9.0203 0.979821C8.92653 0.886052 8.79936 0.833374 8.66675 0.833374M8.16675 1.83337H4.00008C3.77907 1.83337 3.56711 1.92117 3.41083 2.07745C3.25455 2.23373 3.16675 2.44569 3.16675 2.66671V13.3334C3.16675 13.5544 3.25455 13.7663 3.41083 13.9226C3.56711 14.0789 3.77907 14.1667 4.00008 14.1667H12.0001C12.2211 14.1667 12.4331 14.0789 12.5893 13.9226C12.7456 13.7663 12.8334 13.5544 12.8334 13.3334V6.50004H8.66675C8.39061 6.50004 8.16675 6.27618 8.16675 6.00004V1.83337ZM12.1263 5.50004L9.16675 2.54048V5.50004H12.1263Z"/>
</svg>
