<svg width="16" height="16" viewBox="0 0 16 16" xmlns="http://www.w3.org/2000/svg">
<path fill-rule="evenodd" clip-rule="evenodd" d="M1.5 13.3334C1.5 13.0572 1.72386 12.8334 2 12.8334L6.66667 12.8334C6.94281 12.8334 7.16667 13.0572 7.16667 13.3334C7.16667 13.6095 6.94281 13.8334 6.66667 13.8334L2 13.8334C1.72386 13.8334 1.5 13.6095 1.5 13.3334ZM9.83334 12.8334L9.83334 11.3334C9.83334 11.0572 9.60949 10.8334 9.33334 10.8334C9.0572 10.8334 8.83334 11.0572 8.83334 11.3334L8.83334 13.3334L8.83334 15.3334C8.83334 15.6095 9.0572 15.8334 9.33334 15.8334C9.60949 15.8334 9.83334 15.6095 9.83334 15.3334L9.83334 13.8334L14 13.8334C14.2762 13.8334 14.5 13.6095 14.5 13.3334C14.5 13.0572 14.2762 12.8334 14 12.8334L9.83334 12.8334ZM8 7.50003C7.72386 7.50003 7.5 7.72389 7.5 8.00003C7.5 8.27617 7.72386 8.50003 8 8.50003L14 8.50003C14.2761 8.50003 14.5 8.27617 14.5 8.00003C14.5 7.72389 14.2761 7.50003 14 7.50003L8 7.50003ZM1.5 8.00003C1.5 7.72389 1.72386 7.50003 2 7.50003L4.83334 7.50003L4.83334 6.00003C4.83334 5.72389 5.0572 5.50003 5.33334 5.50003C5.60949 5.50003 5.83334 5.72389 5.83334 6.00003L5.83334 10C5.83334 10.2762 5.60949 10.5 5.33334 10.5C5.0572 10.5 4.83334 10.2762 4.83334 10L4.83334 8.50003L2 8.50003C1.72386 8.50003 1.5 8.27617 1.5 8.00003ZM10.1667 2.66669L10.1667 0.666687C10.1667 0.390545 10.3905 0.166687 10.6667 0.166687C10.9428 0.166687 11.1667 0.390544 11.1667 0.666687L11.1667 2.16669L14 2.16669C14.2761 2.16669 14.5 2.39054 14.5 2.66669C14.5 2.94283 14.2761 3.16669 14 3.16669L11.1667 3.16669L11.1667 4.66669C11.1667 4.94283 10.9428 5.16669 10.6667 5.16669C10.3905 5.16669 10.1667 4.94283 10.1667 4.66669L10.1667 2.66669ZM1.5 2.66669C1.5 2.39054 1.72386 2.16669 2 2.16669L8 2.16669C8.27614 2.16669 8.5 2.39054 8.5 2.66669C8.5 2.94283 8.27614 3.16669 8 3.16669L2 3.16669C1.72386 3.16669 1.5 2.94283 1.5 2.66669Z"/>
</svg>
