<svg width="16" height="16" viewBox="0 0 16 16" xmlns="http://www.w3.org/2000/svg">
<path fill-rule="evenodd" clip-rule="evenodd" d="M5.00001 1.83337C4.69059 1.83337 4.39384 1.95629 4.17505 2.17508C3.95626 2.39388 3.83334 2.69062 3.83334 3.00004C3.83334 3.30946 3.95626 3.60621 4.17505 3.825C4.3906 4.04054 4.6818 4.16304 4.98625 4.16663H7.33997C7.24771 3.89533 7.1159 3.56646 6.9369 3.241C6.50784 2.46088 5.88863 1.83337 5.00001 1.83337ZM2.83334 3.00004C2.83334 3.41668 2.95334 3.82094 3.17421 4.16663H1.33334C1.0572 4.16663 0.833344 4.39048 0.833344 4.66663V7.99996C0.833344 8.2761 1.0572 8.49996 1.33334 8.49996H2.16666V14.6667C2.16666 14.9428 2.39051 15.1667 2.66666 15.1667H13.3333C13.6095 15.1667 13.8333 14.9428 13.8333 14.6667V8.49996H14.6667C14.9428 8.49996 15.1667 8.2761 15.1667 7.99996V4.66663C15.1667 4.39048 14.9428 4.16663 14.6667 4.16663H12.8258C13.0467 3.82094 13.1667 3.41668 13.1667 3.00004C13.1667 2.4254 12.9384 1.8743 12.5321 1.46798C12.1257 1.06165 11.5746 0.833374 11 0.833374C9.55528 0.833374 8.67449 1.87254 8.18689 2.75908C8.11862 2.88322 8.05645 3.00701 8.00001 3.12817C7.94356 3.00701 7.88139 2.88322 7.81312 2.75908C7.32552 1.87254 6.44473 0.833374 5.00001 0.833374C4.42537 0.833374 3.87427 1.06165 3.46795 1.46798C3.06162 1.8743 2.83334 2.4254 2.83334 3.00004ZM11.0138 4.16663H8.66004C8.7523 3.89533 8.88411 3.56646 9.06311 3.241C9.49217 2.46088 10.1114 1.83337 11 1.83337C11.3094 1.83337 11.6062 1.95629 11.825 2.17508C12.0438 2.39388 12.1667 2.69062 12.1667 3.00004C12.1667 3.30946 12.0438 3.60621 11.825 3.825C11.6094 4.04054 11.3182 4.16304 11.0138 4.16663ZM8.5 5.16671V7.49996H14.1667V5.16663H11.0188C11.0125 5.16668 11.0063 5.16671 11 5.16671H8.5ZM1.83334 5.16663H4.98126L5.00001 5.16671H7.5V7.49996H1.83334V5.16663ZM7.5 8.49996H3.16666V14.1667H7.5V8.49996ZM8.5 14.1667V8.49996H12.8333V14.1667H8.5Z"/>
</svg>
