<svg width="16" height="16" viewBox="0 0 16 16" xmlns="http://www.w3.org/2000/svg">
<path fill-rule="evenodd" clip-rule="evenodd" d="M8.67968 13.8427C11.9065 13.8427 14.5223 11.2268 14.5223 7.99999C14.5223 4.77318 11.9065 2.15733 8.67968 2.15733C5.84986 2.15733 3.48992 4.16911 2.95207 6.84047L3.34254 6.44978C3.53775 6.25446 3.85433 6.25437 4.04965 6.44958C4.24497 6.64478 4.24506 6.96137 4.04985 7.15668L2.69066 8.51664C2.59688 8.61047 2.46966 8.66318 2.33701 8.66318C2.20435 8.66318 2.07713 8.61047 1.98335 8.51664L0.624165 7.15668C0.428958 6.96137 0.429047 6.64478 0.624365 6.44958C0.819682 6.25437 1.13626 6.25446 1.33147 6.44978L1.906 7.02463C2.37939 3.70753 5.23172 1.15733 8.67968 1.15733C12.4588 1.15733 15.5223 4.22089 15.5223 7.99999C15.5223 11.7791 12.4588 14.8427 8.67968 14.8427C5.87297 14.8427 3.46205 13.1529 2.4066 10.7372C2.29604 10.4842 2.41155 10.1894 2.66459 10.0789C2.91764 9.96832 3.2124 10.0838 3.32296 10.3369C4.225 12.4014 6.28459 13.8427 8.67968 13.8427ZM7.07023 8.95168C6.81381 9.05417 6.68903 9.34513 6.79153 9.60154C6.89402 9.85796 7.18497 9.98274 7.44139 9.88025L9.32051 9.12914C9.3731 9.10812 9.42015 9.07917 9.46084 9.04422C9.57384 8.95255 9.64606 8.81257 9.64606 8.65572L9.64606 4.79058C9.64606 4.51444 9.42221 4.29058 9.14606 4.29058C8.86992 4.29058 8.64606 4.51444 8.64606 4.79058L8.64606 8.3218L7.07023 8.95168Z"/>
</svg>
