<svg width="16" height="16" viewBox="0 0 16 16" xmlns="http://www.w3.org/2000/svg">
<path fill-rule="evenodd" clip-rule="evenodd" d="M7.77636 0.88616C7.91712 0.815779 8.08281 0.815779 8.22357 0.88616L14.8902 4.21949C15.0596 4.30419 15.1666 4.47732 15.1666 4.66671C15.1666 4.85609 15.0596 5.02922 14.8902 5.11392L8.22357 8.44725C8.08281 8.51764 7.91712 8.51764 7.77636 8.44725L1.10969 5.11392C0.940302 5.02922 0.8333 4.85609 0.8333 4.66671C0.8333 4.47732 0.940302 4.30419 1.10969 4.21949L7.77636 0.88616ZM2.45133 4.66671L7.99997 7.44102L13.5486 4.66671L7.99997 1.89239L2.45133 4.66671ZM0.886087 11.1098C1.00958 10.8628 1.30992 10.7627 1.55691 10.8862L7.99997 14.1077L14.443 10.8862C14.69 10.7627 14.9904 10.8628 15.1138 11.1098C15.2373 11.3568 15.1372 11.6571 14.8902 11.7806L8.22357 15.1139C8.08281 15.1843 7.91712 15.1843 7.77636 15.1139L1.10969 11.7806C0.862704 11.6571 0.762592 11.3568 0.886087 11.1098ZM1.55691 7.55279C1.30992 7.42929 1.00958 7.5294 0.886087 7.77639C0.762592 8.02338 0.862704 8.32372 1.10969 8.44721L7.77636 11.7805C7.91712 11.8509 8.08281 11.8509 8.22357 11.7805L14.8902 8.44721C15.1372 8.32372 15.2373 8.02338 15.1138 7.77639C14.9904 7.5294 14.69 7.42929 14.443 7.55279L7.99997 10.7743L1.55691 7.55279Z"/>
</svg>
