<svg width="16" height="16" viewBox="0 0 16 16" xmlns="http://www.w3.org/2000/svg">
<path fill-rule="evenodd" clip-rule="evenodd" d="M4.5 5C4.5 3.067 6.067 1.5 8 1.5C9.933 1.5 11.5 3.067 11.5 5V5.5H13C13.8284 5.5 14.5 6.17157 14.5 7V13C14.5 13.8284 13.8284 14.5 13 14.5H3C2.17157 14.5 1.5 13.8284 1.5 13V7C1.5 6.17157 2.17157 5.5 3 5.5H4.5V5ZM10.5 5V5.5H5.5V5C5.5 3.61929 6.61929 2.5 8 2.5C9.38071 2.5 10.5 3.61929 10.5 5ZM3 6.5C2.72386 6.5 2.5 6.72386 2.5 7V13C2.5 13.2761 2.72386 13.5 3 13.5H13C13.2761 13.5 13.5 13.2761 13.5 13V7C13.5 6.72386 13.2761 6.5 13 6.5H3ZM7.1842 9.24334C7.1842 8.85215 7.52084 8.5 7.9802 8.5C8.43955 8.5 8.77619 8.85215 8.77619 9.24334C8.77619 9.50752 8.62707 9.74913 8.38556 9.88316C8.26378 9.95075 8.19627 10.0475 8.16212 10.1075C8.12641 10.1702 8.1053 10.2314 8.09223 10.2762C8.06636 10.3648 8.05179 10.4615 8.04174 10.5396C8.03129 10.6208 8.02414 10.6899 8.01725 10.7564L8.01725 10.7565C8.00761 10.8497 7.9985 10.9377 7.98162 11.0464L7.98019 11.0556L7.97877 11.0464C7.96189 10.9377 7.95278 10.8497 7.94315 10.7565L7.94314 10.7565L7.94314 10.7565C7.93625 10.6899 7.9291 10.6208 7.91865 10.5396C7.9086 10.4615 7.89403 10.3648 7.86816 10.2762C7.85509 10.2314 7.83398 10.1702 7.79827 10.1075C7.76412 10.0475 7.69661 9.95075 7.57483 9.88316C7.33332 9.74913 7.1842 9.50752 7.1842 9.24334ZM7.9802 7.5C7.00804 7.5 6.1842 8.26118 6.1842 9.24334C6.1842 9.82978 6.48138 10.341 6.92513 10.6543L6.92684 10.6673C6.93117 10.701 6.93655 10.751 6.94284 10.8095C6.95546 10.9269 6.97175 11.0784 6.9906 11.1998C7.02099 11.3956 7.07424 11.6517 7.19714 11.8691C7.33345 12.1102 7.58648 12.3466 7.9802 12.3466C8.37391 12.3466 8.62694 12.1102 8.76325 11.8691C8.88615 11.6517 8.9394 11.3956 8.96979 11.1998C8.98864 11.0784 9.00493 10.9269 9.01755 10.8095C9.02384 10.751 9.02922 10.701 9.03355 10.6673L9.03526 10.6543C9.47901 10.341 9.77619 9.82978 9.77619 9.24334C9.77619 8.26118 8.95235 7.5 7.9802 7.5ZM6.90841 10.5571C6.908 10.5558 6.90796 10.5555 6.90823 10.5564L6.90841 10.5571Z"/>
</svg>
