<svg width="16" height="16" viewBox="0 0 16 16" xmlns="http://www.w3.org/2000/svg">
<path fill-rule="evenodd" clip-rule="evenodd" d="M1.90106 3.67247C2.02932 3.37613 2.32538 3.16663 2.66659 3.16663H13.3333C13.6745 3.16663 13.9705 3.37614 14.0988 3.67249L7.99992 8.05115L1.90106 3.67247ZM1.83325 4.85482V12C1.83325 12.4572 2.20939 12.8333 2.66659 12.8333H13.3333C13.7904 12.8333 14.1666 12.4572 14.1666 12V4.85485L8.29152 9.07283C8.11725 9.19795 7.88259 9.19795 7.70831 9.07283L1.83325 4.85482ZM2.66659 2.16663C1.65711 2.16663 0.833252 2.99048 0.833252 3.99996V12C0.833252 13.0094 1.65711 13.8333 2.66659 13.8333H13.3333C14.3427 13.8333 15.1666 13.0094 15.1666 12V3.99996C15.1666 2.99048 14.3427 2.16663 13.3333 2.16663H2.66659Z"/>
</svg>
