<svg width="16" height="16" viewBox="0 0 16 16" xmlns="http://www.w3.org/2000/svg">
<path fill-rule="evenodd" clip-rule="evenodd" d="M15.0202 0.979835C15.1696 1.12925 15.209 1.35647 15.1185 1.54743L9.11855 14.2141C9.02814 14.405 8.82757 14.5184 8.61741 14.4976C8.40725 14.4768 8.23283 14.3262 8.18161 14.1213L6.92104 9.07903L1.87874 7.81846C1.67386 7.76724 1.52326 7.59282 1.50245 7.38266C1.48164 7.1725 1.59511 6.97193 1.78597 6.88152L14.4526 0.881519C14.6436 0.791062 14.8708 0.830418 15.0202 0.979835ZM3.47669 7.18717L7.45461 8.18165C7.63376 8.22644 7.77363 8.36631 7.81842 8.54545L8.8129 12.5234L13.6155 2.38458L3.47669 7.18717Z"/>
</svg>
