<svg width="16" height="16" viewBox="0 0 16 16" xmlns="http://www.w3.org/2000/svg">
<path fill-rule="evenodd" clip-rule="evenodd" d="M4.33332 3.16663C3.68899 3.16663 3.16666 3.68896 3.16666 4.33329C3.16666 4.97762 3.68899 5.49996 4.33332 5.49996C4.97766 5.49996 5.49999 4.97762 5.49999 4.33329C5.49999 3.68896 4.97766 3.16663 4.33332 3.16663ZM2.16666 4.33329C2.16666 3.13668 3.13671 2.16663 4.33332 2.16663C5.52994 2.16663 6.49999 3.13668 6.49999 4.33329C6.49999 5.52991 5.52994 6.49996 4.33332 6.49996C3.13671 6.49996 2.16666 5.52991 2.16666 4.33329ZM13.0202 2.97982C13.2155 3.17508 13.2155 3.49167 13.0202 3.68693L3.6869 13.0203C3.49163 13.2155 3.17505 13.2155 2.97979 13.0203C2.78453 12.825 2.78453 12.5084 2.97979 12.3132L12.3131 2.97982C12.5084 2.78456 12.825 2.78456 13.0202 2.97982ZM10.5 11.6667C10.5 11.0223 11.0223 10.5 11.6667 10.5C12.311 10.5 12.8333 11.0223 12.8333 11.6667C12.8333 12.311 12.311 12.8333 11.6667 12.8333C11.0223 12.8333 10.5 12.311 10.5 11.6667ZM11.6667 9.5C10.47 9.5 9.5 10.47 9.5 11.6667C9.5 12.8633 10.47 13.8333 11.6667 13.8333C12.8633 13.8333 13.8333 12.8633 13.8333 11.6667C13.8333 10.47 12.8633 9.5 11.6667 9.5Z"/>
</svg>
