<svg width="16" height="16" viewBox="0 0 16 16" xmlns="http://www.w3.org/2000/svg">
<path fill-rule="evenodd" clip-rule="evenodd" d="M7.32045 2.15735C4.09363 2.15735 1.47778 4.7732 1.47778 8.00001C1.47778 11.2268 4.09363 13.8427 7.32045 13.8427C10.1503 13.8427 12.5102 11.8309 13.0481 9.15952L12.6576 9.55022C12.4624 9.74554 12.1458 9.74563 11.9505 9.55042C11.7552 9.35522 11.7551 9.03863 11.9503 8.84332L13.3095 7.48336C13.4032 7.38953 13.5305 7.33681 13.6631 7.33681C13.7958 7.33681 13.923 7.38953 14.0168 7.48336L15.376 8.84332C15.5712 9.03863 15.5711 9.35522 15.3758 9.55042C15.1804 9.74563 14.8639 9.74554 14.6687 9.55022L14.0941 8.97537C13.6207 12.2925 10.7684 14.8427 7.32045 14.8427C3.54135 14.8427 0.477783 11.7791 0.477783 8.00001C0.477783 4.22091 3.54135 1.15735 7.32045 1.15735C10.1272 1.15735 12.5381 2.84711 13.5935 5.26276C13.7041 5.5158 13.5886 5.81056 13.3355 5.92112C13.0825 6.03168 12.7877 5.91618 12.6772 5.66313C11.7751 3.59857 9.71553 2.15735 7.32045 2.15735ZM10.0461 6.29225C10.2414 6.09698 10.2414 5.7804 10.0461 5.58514C9.85084 5.38988 9.53426 5.38988 9.339 5.58514L7.47584 7.4483L5.61268 5.58514C5.41742 5.38988 5.10084 5.38988 4.90557 5.58514C4.71031 5.7804 4.71031 6.09698 4.90557 6.29225L6.76873 8.1554L4.90557 10.0186C4.71031 10.2138 4.71031 10.5304 4.90557 10.7257C5.10084 10.9209 5.41742 10.9209 5.61268 10.7257L7.47584 8.86251L9.339 10.7257C9.53426 10.9209 9.85084 10.9209 10.0461 10.7257C10.2414 10.5304 10.2414 10.2138 10.0461 10.0186L8.18295 8.1554L10.0461 6.29225Z"/>
</svg>
