<svg width="16" height="16" viewBox="0 0 16 16" xmlns="http://www.w3.org/2000/svg">
<path fill-rule="evenodd" clip-rule="evenodd" d="M1.33334 0.833374C1.0572 0.833374 0.833344 1.05723 0.833344 1.33337V8.00004C0.833344 8.13275 0.886102 8.26002 0.979996 8.3538L6.70626 14.0734L6.70648 14.0736C6.8767 14.244 7.07882 14.3791 7.30129 14.4713C7.52385 14.5636 7.76242 14.6111 8.00334 14.6111C8.24427 14.6111 8.48284 14.5636 8.7054 14.4713C8.92797 14.3791 9.13016 14.2439 9.30043 14.0734L14.0802 9.29359L13.7267 8.94004L14.0813 9.29254C14.4227 8.94904 14.6144 8.48438 14.6144 8.00004C14.6144 7.5157 14.4227 7.05104 14.0813 6.70754L14.0802 6.70649L8.35356 0.979821C8.2598 0.886052 8.13262 0.833374 8.00001 0.833374H1.33334ZM13.3726 8.58705L13.3721 8.58754L8.59312 13.3665L8.59293 13.3667C8.51553 13.4442 8.42362 13.5056 8.32246 13.5476C8.2213 13.5895 8.11286 13.6111 8.00334 13.6111C7.89383 13.6111 7.78539 13.5895 7.68423 13.5476C7.58306 13.5056 7.49116 13.4442 7.41376 13.3667L7.41336 13.3663L1.83334 7.79276V1.83337H7.7929L13.3721 7.41254L13.3726 7.41303C13.5275 7.56912 13.6144 7.78012 13.6144 8.00004C13.6144 8.21996 13.5275 8.43096 13.3726 8.58705ZM4.66666 4.16663C4.39051 4.16663 4.16666 4.39048 4.16666 4.66663C4.16666 4.94277 4.39051 5.16663 4.66666 5.16663H4.67332C4.94947 5.16663 5.17332 4.94277 5.17332 4.66663C5.17332 4.39048 4.94947 4.16663 4.67332 4.16663H4.66666Z"/>
</svg>
