<svg width="16" height="16" viewBox="0 0 16 16" xmlns="http://www.w3.org/2000/svg">
<g clip-path="url(#clip0)">
<path fill-rule="evenodd" clip-rule="evenodd" d="M7.99996 1.16663C7.77895 1.16663 7.56698 1.25442 7.4107 1.4107C7.25442 1.56698 7.16663 1.77895 7.16663 1.99996V2.11329V2.11529H7.16662C7.16538 2.42732 7.07292 2.73218 6.90063 2.99234C6.72834 3.2525 6.48373 3.45661 6.19693 3.57953C6.14957 3.59983 6.09945 3.61264 6.04837 3.61761C5.78296 3.71394 5.49611 3.73854 5.21703 3.68794C4.90246 3.6309 4.6122 3.48094 4.38366 3.25739L4.37972 3.25353L4.37974 3.25351L4.33974 3.21351L4.33954 3.21332C4.26215 3.13584 4.17024 3.07437 4.06908 3.03243C3.96791 2.9905 3.85947 2.96891 3.74996 2.96891C3.64045 2.96891 3.53201 2.9905 3.43084 3.03243C3.32968 3.07437 3.23777 3.13584 3.16038 3.21332L3.15998 3.21371C3.0825 3.2911 3.02104 3.38301 2.9791 3.48418C2.93716 3.58534 2.91558 3.69378 2.91558 3.80329C2.91558 3.91281 2.93716 4.02124 2.9791 4.12241C3.02104 4.22357 3.0825 4.31548 3.15998 4.39288L3.16018 4.39307L3.20018 4.43307L3.20408 4.43697L3.20406 4.43699C3.42761 4.66553 3.57757 4.9558 3.63461 5.27036C3.6907 5.57974 3.65438 5.89867 3.53037 6.18735C3.41853 6.48242 3.22188 6.73795 2.96503 6.92165C2.7039 7.10842 2.39262 7.21232 2.07165 7.21982L2.05996 7.2201V7.21996H1.99996C1.77895 7.21996 1.56698 7.30776 1.4107 7.46404C1.25442 7.62032 1.16663 7.83228 1.16663 8.05329C1.16663 8.27431 1.25442 8.48627 1.4107 8.64255C1.56698 8.79883 1.77895 8.88663 1.99996 8.88663H2.11329H2.11529C2.42732 8.88787 2.73218 8.98033 2.99234 9.15263C3.25177 9.32443 3.45546 9.56814 3.57849 9.8539C3.70669 10.1457 3.74482 10.4692 3.68794 10.7829C3.6309 11.0975 3.48094 11.3877 3.25739 11.6163L3.25353 11.6202L3.25351 11.6202L3.21351 11.6602L3.21332 11.6604C3.13584 11.7378 3.07437 11.8297 3.03243 11.9308C2.9905 12.032 2.96891 12.1404 2.96891 12.25C2.96891 12.3595 2.9905 12.4679 3.03243 12.5691C3.07437 12.6702 3.13584 12.7621 3.21332 12.8395L3.21371 12.8399C3.2911 12.9174 3.38301 12.9789 3.48418 13.0208C3.58534 13.0628 3.69378 13.0843 3.80329 13.0843C3.91281 13.0843 4.02124 13.0628 4.12241 13.0208C4.22358 12.9789 4.31548 12.9174 4.39288 12.8399L4.39307 12.8397L4.43307 12.7997L4.43697 12.7958L4.43699 12.7959C4.66553 12.5723 4.9558 12.4223 5.27036 12.3653C5.57974 12.3092 5.89867 12.3455 6.18735 12.4696C6.48241 12.5814 6.73794 12.778 6.92165 13.0349C7.10842 13.296 7.21232 13.6073 7.21982 13.9283L7.2201 13.94H7.21996V14C7.21996 14.221 7.30776 14.4329 7.46404 14.5892C7.62032 14.7455 7.83228 14.8333 8.05329 14.8333C8.27431 14.8333 8.48627 14.7455 8.64255 14.5892C8.79883 14.4329 8.88663 14.221 8.88663 14V13.8866L8.88663 13.8846C8.88787 13.5726 8.98033 13.2677 9.15263 13.0076C9.32444 12.7481 9.56817 12.5444 9.85395 12.4214C10.1458 12.2932 10.4692 12.2551 10.7829 12.312C11.0975 12.369 11.3877 12.519 11.6163 12.7425L11.6202 12.7464L11.6202 12.7464L11.6602 12.7864L11.6604 12.7866C11.7378 12.8641 11.8297 12.9255 11.9308 12.9675C12.032 13.0094 12.1404 13.031 12.25 13.031C12.3595 13.031 12.4679 13.0094 12.5691 12.9675C12.6702 12.9255 12.7621 12.8641 12.8395 12.7866L12.8399 12.7862C12.9174 12.7088 12.9789 12.6169 13.0208 12.5157C13.0628 12.4146 13.0843 12.3061 13.0843 12.1966C13.0843 12.0871 13.0628 11.9787 13.0208 11.8775C12.9789 11.7763 12.9174 11.6844 12.8399 11.607L12.8397 11.6069L12.7997 11.5669L12.7958 11.5629L12.7959 11.5629C12.5723 11.3344 12.4223 11.0441 12.3653 10.7296C12.3084 10.4159 12.3466 10.0924 12.4747 9.80062C12.5978 9.51484 12.8015 9.27111 13.0609 9.09929C13.3211 8.927 13.6259 8.83454 13.938 8.8333L13.94 8.83329L14 8.83329C14.221 8.83329 14.4329 8.7455 14.5892 8.58921C14.7455 8.43293 14.8333 8.22097 14.8333 7.99996C14.8333 7.77895 14.7455 7.56699 14.5892 7.4107C14.4329 7.25442 14.221 7.16663 14 7.16663H13.8866L13.8846 7.16662C13.5726 7.16538 13.2677 7.07292 13.0076 6.90063C12.7474 6.72834 12.5433 6.48373 12.4204 6.19693C12.4001 6.14957 12.3873 6.09945 12.3823 6.04836C12.286 5.78296 12.2614 5.49611 12.312 5.21703C12.369 4.90246 12.519 4.6122 12.7425 4.38366L12.7464 4.37972L12.7464 4.37974L12.7864 4.33974L12.7866 4.33954C12.8641 4.26215 12.9255 4.17024 12.9675 4.06908C13.0094 3.96791 13.031 3.85947 13.031 3.74996C13.031 3.64045 13.0094 3.53201 12.9675 3.43084C12.9255 3.32968 12.8641 3.23777 12.7866 3.16038L12.7862 3.15998C12.7088 3.0825 12.6169 3.02104 12.5157 2.9791C12.4146 2.93716 12.3061 2.91558 12.1966 2.91558C12.0871 2.91558 11.9787 2.93716 11.8775 2.9791C11.7763 3.02104 11.6844 3.0825 11.607 3.15998L11.6068 3.16018L11.5669 3.20018L11.5629 3.20408L11.5629 3.20406C11.3344 3.42761 11.0441 3.57757 10.7296 3.63461C10.4159 3.69148 10.0924 3.65336 9.80057 3.52515C9.51481 3.40212 9.2711 3.19844 9.09929 2.93901C8.927 2.67885 8.83454 2.37399 8.8333 2.06195L8.83329 2.05996V1.99996C8.83329 1.77895 8.7455 1.56698 8.58921 1.4107C8.43293 1.25442 8.22097 1.16663 7.99996 1.16663ZM6.7036 0.703597C7.04741 0.35978 7.51373 0.166626 7.99996 0.166626C8.48619 0.166626 8.95251 0.35978 9.29632 0.703597C9.64014 1.04741 9.83329 1.51373 9.83329 1.99996V2.05878C9.83392 2.17551 9.86858 2.28953 9.93304 2.38686C9.99765 2.48442 10.0894 2.56096 10.1969 2.60706L10.2019 2.60917L10.2018 2.60919C10.3115 2.6576 10.4332 2.67204 10.5511 2.65065C10.6683 2.6294 10.7765 2.57376 10.862 2.49084L10.8995 2.45327C11.0698 2.28281 11.272 2.14759 11.4946 2.05533C11.7171 1.96307 11.9557 1.91558 12.1966 1.91558C12.4376 1.91558 12.6761 1.96307 12.8987 2.05533C13.1212 2.14759 13.3234 2.28281 13.4937 2.45327C13.664 2.62345 13.7991 2.82551 13.8913 3.0479C13.9835 3.27047 14.031 3.50903 14.031 3.74996C14.031 3.99089 13.9835 4.22945 13.8913 4.45202C13.799 4.67449 13.6639 4.87662 13.4935 5.04685C13.4934 5.04691 13.4934 5.04698 13.4933 5.04704L13.4557 5.08462C13.3728 5.17006 13.3172 5.27825 13.2959 5.39544C13.2745 5.5134 13.289 5.63507 13.3374 5.74474C13.3553 5.78531 13.3677 5.82798 13.3743 5.87161C13.4203 5.94962 13.4836 6.0165 13.5597 6.06688C13.6571 6.13134 13.7711 6.166 13.8878 6.16663H14C14.4862 6.16663 14.9525 6.35978 15.2963 6.7036C15.6401 7.04741 15.8333 7.51373 15.8333 7.99996C15.8333 8.48619 15.6401 8.95251 15.2963 9.29632C14.9525 9.64014 14.4862 9.83329 14 9.83329H13.9411C13.8244 9.83392 13.7104 9.86858 13.6131 9.93304C13.5155 9.99765 13.439 10.0894 13.3929 10.1969L13.3907 10.2019L13.3907 10.2018C13.3423 10.3115 13.3279 10.4332 13.3493 10.5511C13.3705 10.6683 13.4262 10.7765 13.5091 10.862L13.5466 10.8995C13.7171 11.0698 13.8523 11.272 13.9446 11.4946C14.0369 11.7171 14.0843 11.9557 14.0843 12.1966C14.0843 12.4376 14.0369 12.6761 13.9446 12.8987C13.8524 13.1212 13.7172 13.3233 13.5468 13.4935C13.3766 13.6639 13.1745 13.799 12.952 13.8913C12.7295 13.9835 12.4909 14.031 12.25 14.031C12.009 14.031 11.7705 13.9835 11.5479 13.8913C11.3253 13.799 11.1231 13.6638 10.9529 13.4933L10.9153 13.4558C10.8299 13.3728 10.7217 13.3172 10.6045 13.2959C10.4865 13.2745 10.3649 13.289 10.2552 13.3374L10.2503 13.3396L10.2503 13.3395C10.1427 13.3856 10.051 13.4622 9.98637 13.5597C9.92191 13.6571 9.88725 13.7711 9.88663 13.8878V14C9.88663 14.4862 9.69347 14.9525 9.34966 15.2963C9.00584 15.6401 8.53952 15.8333 8.05329 15.8333C7.56706 15.8333 7.10075 15.6401 6.75693 15.2963C6.41311 14.9525 6.21996 14.4862 6.21996 14V13.9467C6.2162 13.8281 6.17736 13.7132 6.10828 13.6166C6.03824 13.5187 5.94036 13.4441 5.82737 13.4026C5.81748 13.3989 5.80771 13.395 5.79808 13.3907C5.6884 13.3423 5.56674 13.3279 5.44877 13.3493C5.33158 13.3705 5.22338 13.4262 5.13793 13.5091L5.10038 13.5466C4.93011 13.7171 4.72791 13.8523 4.50535 13.9446C4.28279 14.0369 4.04422 14.0843 3.80329 14.0843C3.56236 14.0843 3.3238 14.0369 3.10124 13.9446C2.87884 13.8524 2.67679 13.7173 2.5066 13.547C2.33615 13.3768 2.20092 13.1746 2.10866 12.952C2.0164 12.7295 1.96891 12.4909 1.96891 12.25C1.96891 12.009 2.0164 11.7705 2.10866 11.5479C2.20092 11.3253 2.33615 11.1231 2.5066 10.9529L2.54417 10.9153C2.62709 10.8299 2.68274 10.7217 2.70398 10.6045C2.72537 10.4865 2.71093 10.3649 2.66253 10.2552L2.66036 10.2503L2.66039 10.2503C2.61429 10.1427 2.53776 10.051 2.44019 9.98637C2.34286 9.92191 2.22884 9.88725 2.11212 9.88663H1.99996C1.51373 9.88663 1.04741 9.69347 0.703597 9.34966C0.35978 9.00584 0.166626 8.53952 0.166626 8.05329C0.166626 7.56706 0.35978 7.10075 0.703597 6.75693C1.04741 6.41311 1.51373 6.21996 1.99996 6.21996H2.05324C2.17184 6.2162 2.28671 6.17736 2.38329 6.10828C2.48121 6.03824 2.5558 5.94036 2.59736 5.82737C2.60099 5.81748 2.60494 5.80771 2.60919 5.79808C2.6576 5.6884 2.67204 5.56673 2.65065 5.44877C2.6294 5.33158 2.57376 5.22338 2.49083 5.13794L2.45327 5.10038C2.28281 4.93011 2.14759 4.72791 2.05533 4.50535C1.96307 4.28279 1.91558 4.04422 1.91558 3.80329C1.91558 3.56236 1.96307 3.3238 2.05533 3.10124C2.14755 2.87876 2.28271 2.67663 2.45307 2.50641C2.6233 2.33604 2.82542 2.20089 3.0479 2.10866C3.27047 2.0164 3.50903 1.96891 3.74996 1.96891C3.99089 1.96891 4.22945 2.0164 4.45202 2.10866C4.67458 2.20092 4.87678 2.33615 5.04704 2.5066L5.08461 2.54417C5.17005 2.62709 5.27825 2.68274 5.39544 2.70398C5.5134 2.72537 5.63507 2.71093 5.74474 2.66253C5.78531 2.64462 5.82798 2.63224 5.87161 2.62562C5.94962 2.57957 6.0165 2.51628 6.06688 2.44019C6.13134 2.34286 6.166 2.22884 6.16663 2.11212V1.99996C6.16663 1.51373 6.35978 1.04741 6.7036 0.703597ZM13.5468 13.4935C13.5468 13.4936 13.5467 13.4936 13.5466 13.4937L13.1933 13.14L13.547 13.4933C13.547 13.4934 13.5469 13.4934 13.5468 13.4935ZM7.99996 6.49996C7.17153 6.49996 6.49996 7.17153 6.49996 7.99996C6.49996 8.82839 7.17153 9.49996 7.99996 9.49996C8.82839 9.49996 9.49996 8.82839 9.49996 7.99996C9.49996 7.17153 8.82839 6.49996 7.99996 6.49996ZM5.49996 7.99996C5.49996 6.61925 6.61925 5.49996 7.99996 5.49996C9.38067 5.49996 10.5 6.61925 10.5 7.99996C10.5 9.38067 9.38067 10.5 7.99996 10.5C6.61925 10.5 5.49996 9.38067 5.49996 7.99996Z"/>
</g>
<defs>
<clipPath id="clip0">
<rect width="16" height="16"/>
</clipPath>
</defs>
</svg>
