<svg width="16" height="16" viewBox="0 0 16 16" xmlns="http://www.w3.org/2000/svg">
<path fill-rule="evenodd" clip-rule="evenodd" d="M6.07742 2.07745C6.2337 1.92117 6.44566 1.83337 6.66668 1.83337H9.33334C9.55436 1.83337 9.76632 1.92117 9.9226 2.07745C10.0789 2.23373 10.1667 2.44569 10.1667 2.66671V3.5H5.83334V2.66671C5.83334 2.44569 5.92114 2.23373 6.07742 2.07745ZM4.83334 3.5V2.66671C4.83334 2.18048 5.0265 1.71416 5.37031 1.37034C5.71413 1.02653 6.18045 0.833374 6.66668 0.833374H9.33334C9.81957 0.833374 10.2859 1.02653 10.6297 1.37034C10.9735 1.71416 11.1667 2.18048 11.1667 2.66671V3.5H14C14.2761 3.5 14.5 3.72386 14.5 4C14.5 4.27614 14.2761 4.5 14 4.5H13.1667V13.3334C13.1667 13.8196 12.9735 14.2859 12.6297 14.6297C12.2859 14.9736 11.8196 15.1667 11.3333 15.1667H4.66668C4.18045 15.1667 3.71413 14.9736 3.37031 14.6297C3.0265 14.2859 2.83334 13.8196 2.83334 13.3334V4.5H2C1.72386 4.5 1.5 4.27614 1.5 4C1.5 3.72386 1.72386 3.5 2 3.5H3.33333H4.83334ZM5.33334 4.50004H10.6667H12.1667V13.3334C12.1667 13.5544 12.0789 13.7663 11.9226 13.9226C11.7663 14.0789 11.5544 14.1667 11.3333 14.1667H4.66668C4.44566 14.1667 4.2337 14.0789 4.07742 13.9226C3.92114 13.7663 3.83334 13.5544 3.83334 13.3334V4.50004H5.33334ZM6.66666 6.83337C6.9428 6.83337 7.16666 7.05723 7.16666 7.33337V11.3334C7.16666 11.6095 6.9428 11.8334 6.66666 11.8334C6.39051 11.8334 6.16666 11.6095 6.16666 11.3334V7.33337C6.16666 7.05723 6.39051 6.83337 6.66666 6.83337ZM9.83334 7.33337C9.83334 7.05723 9.60949 6.83337 9.33334 6.83337C9.0572 6.83337 8.83334 7.05723 8.83334 7.33337V11.3334C8.83334 11.6095 9.0572 11.8334 9.33334 11.8334C9.60949 11.8334 9.83334 11.6095 9.83334 11.3334V7.33337Z"/>
</svg>
