<svg width="16" height="16" viewBox="0 0 16 16" xmlns="http://www.w3.org/2000/svg">
<g clip-path="url(#clip0)">
<path d="M5 1.5C5 1.22386 5.22386 1 5.5 1H10.5C10.7761 1 11 1.22386 11 1.5V6.5C11 6.77614 10.7761 7 10.5 7H5.5C5.22386 7 5 6.77614 5 6.5V1.5Z" stroke="#787F85" stroke-linecap="round" stroke-linejoin="round"/>
<path d="M1 9.5C1 9.22386 1.22386 9 1.5 9H6.5C6.77614 9 7 9.22386 7 9.5V14.5C7 14.7761 6.77614 15 6.5 15H1.5C1.22386 15 1 14.7761 1 14.5V9.5Z" stroke="#787F85" stroke-linecap="round" stroke-linejoin="round"/>
<path d="M9 9.5C9 9.22386 9.22386 9 9.5 9H14.5C14.7761 9 15 9.22386 15 9.5V14.5C15 14.7761 14.7761 15 14.5 15H9.5C9.22386 15 9 14.7761 9 14.5V9.5Z" stroke="#787F85" stroke-linecap="round" stroke-linejoin="round"/>
<rect x="11.75" y="9.75" width="0.5" height="0.5" stroke="#787F85" stroke-width="0.5"/>
<rect x="3.75" y="9.75" width="0.5" height="0.5" stroke="#787F85" stroke-width="0.5"/>
<rect x="7.75" y="1.75" width="0.5" height="0.5" stroke="#787F85" stroke-width="0.5"/>
</g>
<defs>
<clipPath id="clip0">
<rect width="16" height="16"/>
</clipPath>
</defs>
</svg>
