<svg width="16" height="16" viewBox="0 0 16 16" xmlns="http://www.w3.org/2000/svg">
<path d="M7.99998 5.99998V7.99998L8.99998 8.99998M11.0067 11.5666L10.7733 14.12C10.7433 14.4524 10.5897 14.7615 10.3428 14.9861C10.0959 15.2108 9.77377 15.3347 9.43999 15.3333H6.55332C6.21954 15.3347 5.89739 15.2108 5.65052 14.9861C5.40365 14.7615 5.25002 14.4524 5.21999 14.12L4.98665 11.5666M4.99332 4.4333L5.22665 1.87997C5.25659 1.54869 5.40927 1.24056 5.65473 1.01607C5.90019 0.791584 6.22069 0.66695 6.55332 0.666637H9.45332C9.7871 0.665283 10.1093 0.789169 10.3561 1.01382C10.603 1.23847 10.7566 1.54754 10.7867 1.87997L11.02 4.4333M12.6666 7.99998C12.6666 10.5773 10.5773 12.6666 7.99998 12.6666C5.42265 12.6666 3.33331 10.5773 3.33331 7.99998C3.33331 5.42265 5.42265 3.33331 7.99998 3.33331C10.5773 3.33331 12.6666 5.42265 12.6666 7.99998Z" stroke="#787F85" stroke-linecap="round" stroke-linejoin="round"/>
</svg>
