<svg width="33" height="32" viewBox="0 0 33 32" xmlns="http://www.w3.org/2000/svg">
<path fill-rule="evenodd" clip-rule="evenodd" d="M23.793 8.95779C23.2702 9.47285 23.2702 10.3227 23.793 10.8378C24.3159 11.3528 25.1786 11.3528 25.7015 10.8378C26.221 10.3261 26.2244 9.48393 25.7117 8.96791C25.9368 9.20142 25.9334 9.60485 25.7015 9.83324C25.4662 10.065 25.0479 10.065 24.8126 9.83324C24.5773 9.60146 24.5773 9.1894 24.8126 8.95762C25.0444 8.72928 25.4539 8.72589 25.6909 8.94748C25.1671 8.44274 24.3124 8.44618 23.793 8.95779ZM28.6296 10.0394C28.6296 10.0394 27.8453 15.8082 25.5447 19.4652C25.4607 19.5907 25.3635 19.7159 25.2536 19.8391C22.9286 23.1307 18.9419 23.56 17.231 23.56L19.9761 31.0799H18.2768L15.2964 22.8904C15.2703 22.7616 15.2964 22.6843 15.3748 22.6586C16.5444 22.2078 16.8238 22.0492 17.6317 21.5908L17.7016 21.5512H17.7158C20.1735 19.9774 21.4954 17.3721 22.0414 16.0915C22.0675 16.0142 22.0675 15.9369 21.9891 15.8854C21.985 15.8841 21.981 15.8828 21.9771 15.8816C21.8242 16.1576 21.6708 16.4336 21.4925 16.7096C19.3487 19.903 16.0807 22.1693 10.7735 22.1693H3.42712C3.24412 22.1693 3.24412 21.989 3.32255 21.9117L5.25719 19.9802C2.56438 19.9802 0.995751 18.4093 0.420588 16.6581C0.3683 16.555 0.316013 16.349 0.525163 16.349H8.76046C9.6232 16.349 10.2245 16.0915 10.7212 15.6537L17.2833 10.2712C14.8258 12.3573 11.4794 15.5764 8.44673 19.697C8.42364 19.7273 8.41641 19.7621 8.42037 19.7961C8.42322 19.7722 8.43154 19.7475 8.44662 19.7227C11.4793 15.6022 14.8257 12.383 17.2832 10.297C19.427 8.46847 20.8911 7.48985 20.8911 7.48985C21.9107 6.84601 23.0349 6.51122 24.3159 6.51122C26.4718 6.51122 27.9309 7.7823 28.36 8.5817L28.3683 8.57151H31.0611C31.2441 8.57151 31.2964 8.80329 31.1395 8.88055L28.6297 10.0137L27.7408 9.6274C27.6663 9.60903 27.6316 9.53824 27.6558 9.46178C27.6078 9.54753 27.6578 9.63271 27.7407 9.65313L28.6296 10.0394ZM27.4009 18.6926C26.146 21.2679 24.9434 22.5556 22.1721 23.869L24.7603 31.0542H32.0283C30.5381 26.6503 28.9172 22.5041 27.4009 18.6926ZM7.37473 31.0542H0.0283203C0.921475 28.2639 1.81463 25.8171 2.63485 23.5702L2.69499 23.4054H9.85839L7.37473 31.0542ZM8.57734 15.0613C9.10022 15.0613 9.5708 14.9841 9.96296 14.6493L13.6754 11.6361C14.4335 9.55011 15.2702 7.41259 16.1068 5.6356C16.5512 6.58848 16.9434 7.54135 17.3617 8.57149C19.4009 6.92327 20.6558 5.94464 22.329 5.48108C21.2832 3.24054 20.5512 1.69534 20.2113 1H11.976C11.2702 2.44219 8.65577 7.79889 5.59695 15.0613H8.57734ZM20.7866 24.3583C20.316 24.4871 19.767 24.5901 19.1918 24.6674L21.5186 31.0542H23.218L20.7866 24.3583Z"/>
<path fill-rule="evenodd" clip-rule="evenodd" d="M24.8063 8.96488C24.5708 9.19687 24.5708 9.60929 24.8063 9.84127C25.0418 10.0733 25.4604 10.0733 25.6959 9.84127C25.9314 9.60929 25.9314 9.19687 25.6959 8.96488C25.4604 8.7329 25.0418 8.7329 24.8063 8.96488Z"/>
<path fill-rule="evenodd" clip-rule="evenodd" d="M31.0602 8.57812H28.365L27.7108 9.37719C27.6062 9.48029 27.6323 9.60917 27.737 9.63495L28.6267 10.0216L31.1387 8.88744C31.2957 8.81011 31.2434 8.57812 31.0602 8.57812ZM21.0121 21.5693H17.6889C16.8254 22.0591 16.5637 22.2137 15.36 22.6777C15.2815 22.7035 15.2553 22.7808 15.2815 22.9097L18.2645 31.1065H19.9654L17.2179 23.5799C18.9972 23.5799 23.2363 23.1159 25.5128 19.4557C24.8325 20.5383 23.1839 21.5693 21.0121 21.5693ZM25.696 9.84116C25.4605 10.0731 25.0418 10.0731 24.8063 9.84116C24.5708 9.60917 24.5708 9.19675 24.8063 8.96477C25.0418 8.73278 25.4605 8.73278 25.696 8.96477C25.1726 8.44924 24.3091 8.44924 23.7858 8.96477C23.2624 9.48029 23.2624 10.3309 23.7858 10.8464C24.3091 11.362 25.1726 11.362 25.696 10.8464C26.2193 10.3309 26.2193 9.48029 25.696 8.96477C25.9315 9.22253 25.9315 9.60917 25.696 9.84116ZM19.1804 24.6882C19.7561 24.6109 20.3056 24.5078 20.7766 24.3789L23.2101 31.0807H21.5093L19.1804 24.6882ZM21.4831 16.7234C19.3374 19.9196 16.0665 22.188 10.7546 22.188H3.40171C3.21854 22.188 3.21854 22.0075 3.29704 21.9302L5.2334 19.997C2.5382 19.997 0.968185 18.4246 0.392512 16.6718C0.340178 16.5687 0.287844 16.3625 0.49718 16.3625H8.73977C9.60328 16.3625 10.2051 16.1048 10.7023 15.6666L17.2702 10.2794C14.8105 12.3672 11.4611 15.5892 8.42577 19.7134C8.34727 19.8165 8.45194 19.9712 8.5566 19.9712H12.4555C15.0198 19.9712 18.343 19.5072 21.7709 15.9243C21.8494 15.847 21.9018 15.847 21.9803 15.8728C21.8233 16.1563 21.6663 16.4399 21.4831 16.7234Z"/>
<path fill-rule="evenodd" clip-rule="evenodd" d="M23.7858 10.8465C23.2624 10.331 23.2624 9.48037 23.7858 8.96484C24.3091 8.44932 25.1726 8.44932 25.696 8.96484C26.2193 9.48037 26.2193 10.331 25.696 10.8465C25.1726 11.362 24.3091 11.362 23.7858 10.8465ZM25.539 19.4815C27.8417 15.8213 28.6267 10.0474 28.6267 10.0474L27.737 9.6608C27.6323 9.63502 27.58 9.50614 27.7108 9.40304L28.365 8.60398C27.9463 7.80491 26.481 6.51611 24.3091 6.51611C23.0269 6.51611 21.9018 6.8512 20.8812 7.4956C20.8812 7.4956 19.4159 8.4751 17.2702 10.3052C14.8105 12.3931 11.4611 15.6151 8.42577 19.7393C8.34726 19.8682 8.45193 19.9971 8.5566 19.9971H12.4555C15.0198 19.9971 18.343 19.5331 21.7709 15.9502C21.8494 15.8729 21.9018 15.8729 21.9803 15.8986C22.0588 15.9502 22.0588 16.0275 22.0326 16.1048C21.4831 17.3937 20.1486 20.0228 17.6627 21.5952H20.9859C23.1839 21.5694 24.8325 20.5384 25.539 19.4815ZM22.1634 23.8893C24.9371 22.5747 26.1408 21.2859 27.3968 18.7082C28.9145 22.5231 30.5369 26.6731 32.0284 31.0808H24.754L22.1634 23.8893ZM0 31.0808H7.35292L9.83878 23.4253H2.66903C1.83169 25.7194 0.915844 28.2197 0 31.0808ZM9.94345 14.6614C9.55094 14.9965 9.07994 15.0738 8.5566 15.0738H5.57356C8.6351 7.80491 11.2518 2.44347 11.9583 1H20.2009C20.5411 1.69596 21.2737 3.24253 22.3204 5.48506C20.6457 5.94903 19.3897 6.92852 17.3487 8.5782C16.93 7.54715 16.5375 6.59343 16.0927 5.63971C15.2553 7.41827 14.418 9.5577 13.6592 11.6456L9.94345 14.6614Z"/>
</svg>
