<svg width="16" height="16" viewBox="0 0 16 16" xmlns="http://www.w3.org/2000/svg">
<g clip-path="url(#clip0)">
<path fill-rule="evenodd" clip-rule="evenodd" d="M8 1.5C4.41015 1.5 1.5 4.41015 1.5 8C1.5 11.5899 4.41015 14.5 8 14.5C11.5899 14.5 14.5 11.5899 14.5 8C14.5 4.41015 11.5899 1.5 8 1.5ZM0.5 8C0.499999 3.85786 3.85786 0.5 8 0.5C12.1421 0.5 15.5 3.85786 15.5 8C15.5 12.1421 12.1421 15.5 8 15.5C3.85786 15.5 0.5 12.1421 0.5 8ZM8.28452 5.16671C7.7345 5.16671 7.29229 5.49341 7.13421 5.91056C7.03635 6.16878 6.7477 6.29878 6.48947 6.20093C6.23125 6.10307 6.10125 5.81441 6.1991 5.55619C6.51202 4.73047 7.34068 4.16671 8.28452 4.16671C9.4747 4.16671 10.5 5.07466 10.5 6.26671C10.5 6.76846 10.3715 7.24263 10.0641 7.625C9.75551 8.00881 9.30783 8.24888 8.7659 8.35704C8.68153 8.37388 8.64736 8.40028 8.63101 8.41624C8.61149 8.43529 8.58488 8.47208 8.56065 8.54946C8.50472 8.72807 8.49999 8.97659 8.49999 9.33337C8.49999 9.60952 8.27613 9.83337 7.99999 9.83337C7.72385 9.83337 7.49999 9.60952 7.49999 9.33337L7.49997 9.29689L7.49997 9.29688C7.4998 8.99119 7.49956 8.59161 7.60634 8.25062C7.66562 8.06134 7.76427 7.86479 7.93264 7.70051C8.10417 7.53313 8.32053 7.4262 8.57018 7.37638C8.936 7.30337 9.15429 7.16068 9.28474 6.99841C9.41637 6.8347 9.49999 6.59946 9.49999 6.26671C9.49999 5.69144 8.98919 5.16671 8.28452 5.16671ZM7.99999 12C8.36818 12 8.66666 11.7016 8.66666 11.3334C8.66666 10.9652 8.36818 10.6667 7.99999 10.6667C7.6318 10.6667 7.33332 10.9652 7.33332 11.3334C7.33332 11.7016 7.6318 12 7.99999 12Z"/>
</g>
<defs>
<clipPath id="clip0">
<rect width="16" height="16" transform="translate(0 16) rotate(-90)"/>
</clipPath>
</defs>
</svg>
